<svg xmlns="http://www.w3.org/2000/svg" viewBox="0 0 11 11">
  <g id="Edit_icon" data-name="Edit icon" transform="translate(-1586 -368)">
    <g id="Group_442" data-name="Group 442" transform="translate(1586 368)">
      <path id="Path_428" data-name="Path 428" d="M11,2.063a.624.624,0,0,1-.206.481L9.9,3.438,7.563,1.1,8.456.206a.665.665,0,0,1,.962,0l1.375,1.375A.624.624,0,0,1,11,2.063Zm-4.4,0L8.938,4.4,2.544,10.794A.624.624,0,0,1,2.062,11H.687A.65.65,0,0,1,0,10.313V8.938a.624.624,0,0,1,.206-.481Z" transform="translate(0)"/>
    </g>
  </g>
</svg>
