<svg xmlns="http://www.w3.org/2000/svg" viewBox="0 0 22.522 22.53">
  <defs>
    <style>
      .cls-1 {
        fill: #085b02;
      }
    </style>
  </defs>
  <path id="icon-contact-phone" class="cls-1" d="M21.969,16.64l-2.8-2.8a1.983,1.983,0,0,0-2.8,0L15.1,15.109a1.5,1.5,0,0,1-2.121,0L7.457,9.589a1.5,1.5,0,0,1,0-2.121L8.731,6.195a1.973,1.973,0,0,0,0-2.8L5.932.6a1.983,1.983,0,0,0-2.8,0c-.579.568-.765.754-1.022,1.011a7.155,7.155,0,0,0,0,10.1l8.74,8.745a7.136,7.136,0,0,0,10.1,0l1.017-1.017A1.989,1.989,0,0,0,21.969,16.64ZM4.063,1.538a.663.663,0,0,1,.935,0L7.8,4.331a.663.663,0,0,1,0,.935l-.465.465L3.6,2Zm7.723,17.988L3.046,10.78A5.806,5.806,0,0,1,2.68,2.948L6.4,6.67a2.824,2.824,0,0,0,.12,3.859l5.515,5.521h0a2.813,2.813,0,0,0,3.859.12l3.722,3.722A5.8,5.8,0,0,1,11.786,19.526ZM21.034,18.5l-.465.465-3.733-3.733.465-.465a.663.663,0,0,1,.935,0l2.8,2.8A.653.653,0,0,1,21.034,18.5Z" transform="translate(-0.025 -0.025)"/>
</svg>
