<svg xmlns="http://www.w3.org/2000/svg" viewBox="0 0 23 23">
  <defs>
    <style>
      .cls-1 {
        fill: #594e4a;
      }
    </style>
  </defs>
  <path id="icon-search" class="cls-1" d="M23,20.975,18.226,16.2a9.9,9.9,0,0,0,2.025-6.075A10.063,10.063,0,0,0,10.126,0,10.063,10.063,0,0,0,0,10.126,10.063,10.063,0,0,0,10.126,20.252,9.9,9.9,0,0,0,16.2,18.226L20.975,23ZM2.893,10.126a7.162,7.162,0,0,1,7.233-7.233,7.162,7.162,0,0,1,7.233,7.233,7.162,7.162,0,0,1-7.233,7.233A7.162,7.162,0,0,1,2.893,10.126Z"/>
</svg>
