<svg xmlns="http://www.w3.org/2000/svg" viewBox="0 0 25.735 21.111">
  <defs>
    <style>
      .cls-1 {
        fill: #085b02;
      }
    </style>
  </defs>
  <path id="icon-contact-email" class="cls-1" d="M23.474,0H8.294A2.265,2.265,0,0,0,6.032,2.262v.754H5.278A2.265,2.265,0,0,0,3.016,5.278v.754H2.262A2.265,2.265,0,0,0,0,8.294V18.849a2.265,2.265,0,0,0,2.262,2.262H17.341A2.265,2.265,0,0,0,19.6,18.849V18.1h.854a2.265,2.265,0,0,0,2.262-2.262v-.754h.754a2.265,2.265,0,0,0,2.262-2.262V2.262A2.265,2.265,0,0,0,23.474,0ZM16.959,7.54l-6.62,6.68a.755.755,0,0,1-1.071,0L2.649,7.54Zm-15.451,11v-10l4.976,5.026ZM2.574,19.6l4.971-4.971.648.653a2.257,2.257,0,0,0,3.212,0l.648-.653L17.025,19.6ZM18.1,18.538l-4.976-4.976L18.1,8.535Zm3.116-2.7a.753.753,0,0,1-.754.754H19.6V8.294a2.265,2.265,0,0,0-2.262-2.262H4.524V5.278a.753.753,0,0,1,.754-.754h15.18a.753.753,0,0,1,.754.754Zm3.016-3.016a.753.753,0,0,1-.754.754H22.72V5.278a2.265,2.265,0,0,0-2.262-2.262H7.54V2.262a.753.753,0,0,1,.754-.754h15.18a.753.753,0,0,1,.754.754Z"/>
</svg>
