<svg xmlns="http://www.w3.org/2000/svg" viewBox="0 0 20.388 28.033">
  <defs>
    <style>
      .cls-1 {
        fill-rule: evenodd;
      }
    </style>
  </defs>
  <path id="icon-docs" class="cls-1" d="M18.637,986.393a.662.662,0,0,1-.637-.637V966.583a.7.7,0,0,1,.239-.538l7.586-7.476a.71.71,0,0,1,.557-.209H37.751a.662.662,0,0,1,.637.637v26.759a.662.662,0,0,1-.637.637H18.637Zm3.843-4.768H33.9a.637.637,0,1,0,0-1.274H22.48a.637.637,0,1,0,0,1.274Zm-.09-3.285h7.874a.637.637,0,1,0,0-1.274H22.48a.639.639,0,1,0-.09,1.274Zm-2.2-12.434h5.475v-5.4Z" transform="translate(-18 -958.36)"/>
</svg>
