<svg id="icon-contact-video" xmlns="http://www.w3.org/2000/svg" viewBox="0 0 23.727 22.244">
  <defs>
    <style>
      .cls-1 {
        fill: #085b02;
      }
    </style>
  </defs>
  <g id="Group_298" data-name="Group 298">
    <path id="Path_394" data-name="Path 394" class="cls-1" d="M23.379,10.52a.691.691,0,0,0-.7,0l-3.221,1.868v-.57a2.089,2.089,0,0,0-1.9-2.076A5.561,5.561,0,1,0,8.786,3.378,4.864,4.864,0,1,0,1.539,9.806,2.089,2.089,0,0,0,0,11.817v8.342a2.089,2.089,0,0,0,2.085,2.085H17.378a2.089,2.089,0,0,0,2.085-2.085v-.57l3.221,1.868a.691.691,0,0,0,.7,0,.7.7,0,0,0,.348-.6V11.122A.7.7,0,0,0,23.379,10.52ZM13.9,1.39A4.171,4.171,0,1,1,9.732,5.561,4.177,4.177,0,0,1,13.9,1.39ZM9.185,8.5a5.555,5.555,0,0,0,1.047,1.233H8.272A5.009,5.009,0,0,0,9.185,8.5ZM1.39,6.256A3.476,3.476,0,1,1,4.866,9.732,3.477,3.477,0,0,1,1.39,6.256Zm16.683,13.9a.694.694,0,0,1-.7.7H2.085a.694.694,0,0,1-.7-.7V11.817a.694.694,0,0,1,.7-.7H17.378a.694.694,0,0,1,.7.7Zm4.263-.51-2.873-1.668V14l2.873-1.664Z"/>
  </g>
</svg>
