<svg id="icon-contact-message" xmlns="http://www.w3.org/2000/svg" viewBox="0 0 24.018 21.111">
  <defs>
    <style>
      .cls-1 {
        fill: #085b02;
      }
    </style>
  </defs>
  <path id="Path_389" data-name="Path 389" class="cls-1" d="M21.907,5.629H16.982V2.111A2.114,2.114,0,0,0,14.871,0H2.111A2.114,2.114,0,0,0,0,2.111v8.444a2.114,2.114,0,0,0,2.111,2.111h.7v2.111a.7.7,0,0,0,1.093.586l3.129-2.088v2.908A2.114,2.114,0,0,0,9.148,18.3h6.919l4.044,2.7a.7.7,0,0,0,1.093-.586V18.3h.7a2.114,2.114,0,0,0,2.111-2.111V7.74A2.114,2.114,0,0,0,21.907,5.629ZM7.346,11.376h0L4.222,13.463v-1.5a.7.7,0,0,0-.7-.7H2.111a.7.7,0,0,1-.7-.7V2.111a.7.7,0,0,1,.7-.7h12.76a.7.7,0,0,1,.7.7v8.444a.7.7,0,0,1-.7.7H7.74A.743.743,0,0,0,7.346,11.376Zm15.265,4.808a.7.7,0,0,1-.7.7H20.5a.7.7,0,0,0-.7.7v1.5l-3.129-2.088a.728.728,0,0,0-.389-.117H9.148a.7.7,0,0,1-.7-.7V12.666h6.427a2.114,2.114,0,0,0,2.111-2.111V7.037h4.926a.7.7,0,0,1,.7.7Z"/>
</svg>
