<svg id="icon-tools-signature" xmlns="http://www.w3.org/2000/svg" viewBox="0 0 48.217 39.667">
  <defs>
    <style>
      .cls-1 {
        fill: #73665f;
        fill-rule: evenodd;
      }
    </style>
  </defs>
  <path id="Path_446" data-name="Path 446" class="cls-1" d="M23.492,29.65l-1.049,10.6,8.652-6.2ZM34.63,10.362,24.745,27.48l7.608,4.391,9.885-17.118Zm2.788-4.828L35.883,8.19l8.635,4.984-4.531,7.848L42.33,22.38l5.887-10.2-3.372-1.947.364-.728a2.2,2.2,0,0,0-.989-2.588l-3.8-2.19A2.2,2.2,0,0,0,37.418,5.533ZM10.425,29.692a55.837,55.837,0,0,1-4.759,6.65A45.293,45.293,0,0,1,0,42.022L1.74,44.1a47.981,47.981,0,0,0,6.108-6.142,22.642,22.642,0,0,0-.205,3.632L9.8,42.651a24.018,24.018,0,0,0,3.389-2.96,13.1,13.1,0,0,0,.157,2.09l2.083.912a19.92,19.92,0,0,0,3.043-2.4c.127.6.283,1.157.439,1.7l2.609-.743a18.424,18.424,0,0,1-.5-2.064,7.149,7.149,0,0,1-.048-2.077l-2.439-.965a16.031,16.031,0,0,1-2.62,2.814,17.451,17.451,0,0,1,.764-4.406l-2.465-1.082a20.824,20.824,0,0,1-3.71,5.095,27.457,27.457,0,0,1,2.322-7.614Z" transform="translate(0 -4.434)"/>
</svg>
