<svg xmlns="http://www.w3.org/2000/svg" viewBox="0 0 37.634 37.635">
  <defs>
    <style>
      .cls-1 {
        fill: #73665f;
      }
    </style>
  </defs>
  <g id="icon-tools-custom" transform="translate(-2.982 -2.833)">
    <path id="Path_447" data-name="Path 447" class="cls-1" d="M42.661,47.484a4.968,4.968,0,1,0-4.967-4.968A4.975,4.975,0,0,0,42.661,47.484Z" transform="translate(-20.864 -20.865)"/>
    <path id="Path_448" data-name="Path 448" class="cls-1" d="M9,29.227,5.883,32.344,11.1,37.567l3.118-3.117a14.7,14.7,0,0,0,3.883,1.6v4.415h7.387V36.053a14.735,14.735,0,0,0,3.883-1.6l3.118,3.117,5.222-5.223L34.6,29.227a14.669,14.669,0,0,0,1.6-3.884h4.414V17.958H36.2a14.691,14.691,0,0,0-1.6-3.884l3.118-3.118L32.493,5.734,29.375,8.852a14.693,14.693,0,0,0-3.883-1.6V2.833H18.106V7.247a14.649,14.649,0,0,0-3.883,1.6L11.1,5.733,5.883,10.956,9,14.074a14.723,14.723,0,0,0-1.6,3.884H2.982v7.386H7.4A14.7,14.7,0,0,0,9,29.227ZM21.8,14.572a7.079,7.079,0,1,1-7.077,7.08A7.088,7.088,0,0,1,21.8,14.572Z" transform="translate(0 0)"/>
  </g>
</svg>
