<svg xmlns="http://www.w3.org/2000/svg" viewBox="0 0 40.645 45.332">
  <defs>
    <style>
      .cls-1 {
        fill: #73665f;
      }
    </style>
  </defs>
  <path id="icon-tools-account" class="cls-1" d="M47.75,61.938c0,.547.078,1.016.078,1.563H30.563A1.567,1.567,0,0,1,29,61.938V57.25A12.519,12.519,0,0,1,40.172,44.828a10.156,10.156,0,1,1,10.469,0,12.451,12.451,0,0,1,8.438,4.688A12.485,12.485,0,0,0,47.75,61.938Zm19.141,6.641a9.391,9.391,0,1,1,0-13.281A9.383,9.383,0,0,1,66.891,68.578Zm-5.859-7.422a.781.781,0,0,0-1.563,0v6.25a.781.781,0,0,0,1.563,0Zm.781-3.906a1.563,1.563,0,1,0-1.563,1.563A1.567,1.567,0,0,0,61.813,57.25Z" transform="translate(-29 -26)"/>
</svg>
