<svg xmlns="http://www.w3.org/2000/svg" viewBox="0 0 32.976 45.768">
  <defs>
    <style>
      .cls-1 {
        fill: #73665f;
      }
    </style>
  </defs>
  <path id="icon-tools-rates" class="cls-1" d="M45.162,42.445a1.144,1.144,0,0,1-1.518,1.429L40.058,42.4a1.032,1.032,0,0,0-1.294.467l-1.882,3.339a1.144,1.144,0,0,1-2.074-.191l-2.751-7.963a6.338,6.338,0,0,0,4.287-2.6.724.724,0,0,1,.822-.266,6.258,6.258,0,0,0,5.291-.588ZM26.014,35.439a.724.724,0,0,0-.822-.266,6.258,6.258,0,0,1-5.277-.574l-2.709,7.846a1.144,1.144,0,0,0,1.518,1.429L22.311,42.4a1.032,1.032,0,0,1,1.294.467l1.905,3.358a1.144,1.144,0,0,0,2.074-.191l2.727-7.982a6.338,6.338,0,0,1-4.287-2.6ZM15.4,20.275a3.526,3.526,0,0,0,0-4.2,3.526,3.526,0,0,1,1.775-5.478,3.526,3.526,0,0,0,2.475-3.4A3.521,3.521,0,0,1,24.3,3.821a3.518,3.518,0,0,0,4-1.3,3.526,3.526,0,0,1,5.754,0,3.518,3.518,0,0,0,4,1.3A3.521,3.521,0,0,1,42.734,7.2,3.526,3.526,0,0,0,45.2,10.593h0a3.526,3.526,0,0,1,1.775,5.469,3.526,3.526,0,0,0,0,4.2A3.526,3.526,0,0,1,45.2,25.744h0a3.526,3.526,0,0,0-2.475,3.4,3.521,3.521,0,0,1-4.67,3.381,3.526,3.526,0,0,0-4,1.3,3.526,3.526,0,0,1-5.754,0,3.526,3.526,0,0,0-4-1.3,3.521,3.521,0,0,1-4.67-3.381,3.526,3.526,0,0,0-2.447-3.4A3.526,3.526,0,0,1,15.4,20.275ZM26.014,15c0,2.279,1.714,3.456,4.231,4.3,1.737.588,2.489,1.154,2.489,2.046S31.8,22.8,30.479,22.8a7.912,7.912,0,0,1-2.564-.439,1.4,1.4,0,0,0-.467-.075,1.326,1.326,0,0,0-1.3.995l-.028.112a1.359,1.359,0,0,0,.9,1.635,10.858,10.858,0,0,0,2.8.5v1.084a1.154,1.154,0,1,0,2.3,0V25.361c2.7-.467,4.2-2.256,4.2-4.348S35.2,17.6,32.408,16.618c-2-.752-2.8-1.247-2.8-2.022,0-.659.5-1.317,2.022-1.317a7.22,7.22,0,0,1,2.078.3,1.312,1.312,0,0,0,.374.056,1.364,1.364,0,0,0,.374-2.676,10.032,10.032,0,0,0-2.144-.308V9.715a1.154,1.154,0,0,0-2.3,0v1.112C27.448,11.294,26.014,12.928,26.014,15Z" transform="translate(-14.696 -1.035)"/>
</svg>
