<svg xmlns="http://www.w3.org/2000/svg" viewBox="0 0 11.173 16">
  <defs>
    <style>
      .cls-1 {
        opacity: 0.3;
      }
    </style>
  </defs>
  <g id="icon-bin" class="cls-1" transform="translate(-0.414)">
    <g id="Group_509" data-name="Group 509">
      <path id="Path_593" data-name="Path 593" d="M10.91,6.555a.378.378,0,0,0-.112-.193c-.488.5-2.451.577-4.8.577S1.69,6.858,1.2,6.362a.4.4,0,0,0-.111.193h0v.036s0,.008,0,.013a.154.154,0,0,0,0,.028l.382,7.828h0C1.506,15.072,2.208,16,6,16s4.5-.928,4.528-1.541h0l.382-7.828c0-.009,0-.018,0-.028s0-.008,0-.013l0-.036H10.91Zm-2.575-4.1V.609A.612.612,0,0,0,7.726,0H4.068A.612.612,0,0,0,3.46.609v1.87C1.652,2.684.414,3.1.414,3.581v.914c0,.188.19.366.531.527A14.045,14.045,0,0,0,6,5.731a14.057,14.057,0,0,0,5.057-.71c.339-.161.53-.339.53-.527V3.581C11.586,3.082,10.253,2.654,8.336,2.458ZM4.63,2.381l-.154.01V1.625c0-.334.047-.609.1-.609H7.219c.056,0,.1.275.1.609v.753C6.9,2.357,6.456,2.343,6,2.343,5.527,2.343,5.067,2.357,4.63,2.381Z"/>
    </g>
  </g>
</svg>
