<svg xmlns="http://www.w3.org/2000/svg" viewBox="0 0 30.338 33.476">
  <defs>
    <style>
      .cls-1 {
        fill: #085b02;
      }
    </style>
  </defs>
  <path id="icon-tools-operations" class="cls-1" d="M7.731,27.153H31.269a1.567,1.567,0,0,0,1.569-1.569V2.569A1.567,1.567,0,0,0,31.269,1H7.731A5.233,5.233,0,0,0,2.5,6.231V29.246a5.233,5.233,0,0,0,5.231,5.231H31.269a1.569,1.569,0,1,0,0-3.138H7.731a2.092,2.092,0,1,1,0-4.185Zm11.047-5.168a1.566,1.566,0,0,1-2.218,0,1.568,1.568,0,0,1-.46-1.109,1.586,1.586,0,0,1,.46-1.109,1.619,1.619,0,0,1,2.218,0,1.586,1.586,0,0,1,.46,1.109A1.568,1.568,0,0,1,18.778,21.985ZM14.646,6.806a4.707,4.707,0,1,1,5.293,7.731,1.556,1.556,0,0,0-.7,1.381v.251a1.569,1.569,0,1,1-3.138,0v-.251A4.644,4.644,0,0,1,18.422,11.8a1.573,1.573,0,0,0-.45-2.919,1.528,1.528,0,0,0-1.308.335,1.588,1.588,0,0,0-.565,1.2,1.569,1.569,0,1,1-3.138,0A4.721,4.721,0,0,1,14.646,6.806Z" transform="translate(-2.5 -1)"/>
</svg>
