<svg id="icon-tools-manuals" xmlns="http://www.w3.org/2000/svg" viewBox="0 0 28.889 36.492">
  <defs>
    <style>
      .cls-1 {
        fill: #085b02;
        fill-rule: evenodd;
      }
    </style>
  </defs>
  <g id="Group_467" data-name="Group 467" transform="translate(0 0)">
    <path id="Path_434" data-name="Path 434" class="cls-1" d="M6,10.687H16.643V6.126H6Z" transform="translate(3.123 2.996)"/>
    <path id="Path_435" data-name="Path 435" class="cls-1" d="M24.589,33.577H4.561a1.52,1.52,0,1,1,0-3.041H24.589a4.614,4.614,0,0,0,0,3.041ZM6.082,7.729A1.52,1.52,0,0,1,7.6,6.208H21.287a1.52,1.52,0,0,1,1.52,1.52v7.6a1.52,1.52,0,0,1-1.52,1.52H7.6a1.52,1.52,0,0,1-1.52-1.52ZM28.448,30.085a1.523,1.523,0,0,0,.29-.43,1.442,1.442,0,0,0,.05-.143,1.518,1.518,0,0,0,.082-.4c0-.032.018-.059.018-.091V1.647a1.52,1.52,0,0,0-1.52-1.52H3.828A3.831,3.831,0,0,0,0,3.953v28.1a4.567,4.567,0,0,0,4.561,4.561H27.369a1.52,1.52,0,0,0,1.075-2.6c-1.432-1.432-1.432-2.5,0-3.93a.033.033,0,0,1,0-.008Z" transform="translate(0 -0.126)"/>
  </g>
</svg>
