<svg xmlns="http://www.w3.org/2000/svg" viewBox="0 0 16 16">
  <defs>
    <style>
      .cls-1 {
        opacity: 0.35;
      }
    </style>
  </defs>
  <path id="icon-move" class="cls-1" d="M17.9,9.8,16,7.648a.251.251,0,0,0-.428.176V9.175h-4.8v-4.8h1.351a.251.251,0,0,0,.176-.428l-2.151-1.9a.249.249,0,0,0-.353,0l-2.151,1.9a.251.251,0,0,0,.176.428H9.175v4.8h-4.8V7.824a.251.251,0,0,0-.428-.176L2.048,9.8a.249.249,0,0,0,0,.353l1.9,2.151a.251.251,0,0,0,.428-.176V10.775h4.8v4.8H7.824A.251.251,0,0,0,7.648,16L9.8,17.9a.249.249,0,0,0,.353,0L12.3,16a.251.251,0,0,0-.176-.428H10.775v-4.8h4.8v1.351A.251.251,0,0,0,16,12.3l1.9-2.151A.249.249,0,0,0,17.9,9.8Z" transform="translate(-1.975 -1.975)"/>
</svg>
