<svg id="icon-tools-POD" xmlns="http://www.w3.org/2000/svg" viewBox="0 0 45.783 45.783">
  <defs>
    <style>
      .cls-1 {
        fill: #085b02;
      }
    </style>
  </defs>
  <path id="Path_436" data-name="Path 436" class="cls-1" d="M51.732,80.036v2.5a.844.844,0,0,1-.857.832H36.016a.844.844,0,0,1-.857-.832v-2.5a6.681,6.681,0,0,1,4.678-6.314,6.862,6.862,0,0,0,7.2-.006A6.682,6.682,0,0,1,51.732,80.036Z" transform="translate(-20.554 -37.584)"/>
  <g id="Group_468" data-name="Group 468" transform="translate(0 12.488)">
    <path id="Path_437" data-name="Path 437" class="cls-1" d="M25.573,37.685v2.5a.844.844,0,0,1-.857.832H9.857A.844.844,0,0,1,9,40.183v-2.5a6.681,6.681,0,0,1,4.678-6.314,6.862,6.862,0,0,0,7.2-.006A6.683,6.683,0,0,1,25.573,37.685Z" transform="translate(-9 -31.366)"/>
  </g>
  <g id="Group_469" data-name="Group 469" transform="translate(2.989 0)">
    <path id="Path_438" data-name="Path 438" class="cls-1" d="M24.926,14.251v1.515a5.286,5.286,0,0,1-10.573,0V14.251a5.286,5.286,0,0,1,10.573,0Z" transform="translate(-14.353 -9)"/>
  </g>
  <g id="Group_470" data-name="Group 470" transform="translate(29.21 12.488)">
    <path id="Path_439" data-name="Path 439" class="cls-1" d="M77.89,37.685v2.5a.844.844,0,0,1-.857.832H62.174a.844.844,0,0,1-.857-.832v-2.5a6.681,6.681,0,0,1,4.678-6.314,6.862,6.862,0,0,0,7.2-.006A6.682,6.682,0,0,1,77.89,37.685Z" transform="translate(-61.317 -31.366)"/>
  </g>
  <g id="Group_471" data-name="Group 471" transform="translate(32.199 0)">
    <path id="Path_440" data-name="Path 440" class="cls-1" d="M77.243,14.251v1.515a5.286,5.286,0,0,1-10.573,0V14.251a5.286,5.286,0,0,1,10.573,0Z" transform="translate(-66.67 -9)"/>
  </g>
  <g id="Group_472" data-name="Group 472" transform="translate(17.594 23.646)">
    <path id="Path_441" data-name="Path 441" class="cls-1" d="M51.085,56.6v1.515a5.286,5.286,0,0,1-10.573,0V56.6a5.286,5.286,0,0,1,10.573,0Z" transform="translate(-40.512 -51.351)"/>
  </g>
  <g id="Group_473" data-name="Group 473" transform="translate(3.706 23.813)">
    <path id="Path_442" data-name="Path 442" class="cls-1" d="M18.45,51.65H15.638a19.082,19.082,0,0,0,9.736,15.778,8.266,8.266,0,0,1,1.408-2.416A16.289,16.289,0,0,1,18.45,51.65Z" transform="translate(-15.638 -51.65)"/>
  </g>
  <g id="Group_474" data-name="Group 474" transform="translate(30.934 23.813)">
    <path id="Path_443" data-name="Path 443" class="cls-1" d="M72.736,51.65A16.292,16.292,0,0,1,64.4,65.012a8.266,8.266,0,0,1,1.408,2.416,19.081,19.081,0,0,0,9.736-15.778H72.736Z" transform="translate(-64.404 -51.65)"/>
  </g>
  <g id="Group_475" data-name="Group 475" transform="translate(14.958 3.9)">
    <path id="Path_444" data-name="Path 444" class="cls-1" d="M51.344,18.851V17.557a19.27,19.27,0,0,0-15.263.007v1.287a6.847,6.847,0,0,1-.29,1.965,16.456,16.456,0,0,1,15.84-.015A6.846,6.846,0,0,1,51.344,18.851Z" transform="translate(-35.791 -15.985)"/>
  </g>
</svg>
