<svg xmlns="http://www.w3.org/2000/svg" viewBox="0 0 15.359 16.262">
  <defs>
    <style>
      .cls-1 {
        opacity: 0.5;
      }
    </style>
  </defs>
  <g id="linklist-manual" class="cls-1">
    <path id="Path_513" data-name="Path 513" d="M9.2,957.362a1.8,1.8,0,0,0-1.7,1.9v12.468a1.8,1.8,0,0,0,1.7,1.9H21.159a1.631,1.631,0,0,0,1.3-.678H9.019a.936.936,0,0,1-.892-.977v-1.434a.936.936,0,0,1,.892-.977h13.84v-10.3a1.8,1.8,0,0,0-1.7-1.9Zm5.98,1.88a.812.812,0,0,1,.762.858v.39a2.736,2.736,0,0,1,.548.226l.277-.277a.911.911,0,0,1,.587-.271.716.716,0,0,1,.559.2.819.819,0,0,1-.068,1.152l-.271.271a2.72,2.72,0,0,1,.22.548h.39a.768.768,0,1,1,0,1.525h-.39a2.714,2.714,0,0,1-.226.548l.277.277a.768.768,0,1,1-1.078,1.078l-.277-.277a2.727,2.727,0,0,1-.548.231v.384a.768.768,0,1,1-1.525,0v-.384a2.727,2.727,0,0,1-.548-.231l-.277.277a.768.768,0,1,1-1.078-1.078l.277-.277a2.712,2.712,0,0,1-.226-.548h-.39a.768.768,0,1,1,0-1.525h.39a2.72,2.72,0,0,1,.22-.548l-.271-.271a.819.819,0,0,1-.068-1.152.7.7,0,0,1,.48-.2.9.9,0,0,1,.666.271l.277.277a2.736,2.736,0,0,1,.548-.226v-.39a.812.812,0,0,1,.762-.858Zm0,2.264a1.6,1.6,0,1,0,1.6,1.6A1.592,1.592,0,0,0,15.179,961.506Z" transform="translate(-7.5 -957.362)"/>
  </g>
</svg>
