<svg xmlns="http://www.w3.org/2000/svg" viewBox="0 0 16.568 16.568">
  <defs>
    <style>
      .cls-1 {
        opacity: 0.5;
      }
    </style>
  </defs>
  <g id="linklist-link" class="cls-1" transform="translate(-19.6 -19.575)">
    <path id="Path_514" data-name="Path 514" d="M33.274,20.535a3.272,3.272,0,0,0-4.631,0l-2.506,2.506a3.309,3.309,0,0,0-.953,2.125,3.265,3.265,0,0,0-2.125.953l-2.506,2.506a3.288,3.288,0,0,0,0,4.631l1.934,1.934a3.279,3.279,0,0,0,2.315.953,3.327,3.327,0,0,0,2.315-.953l2.506-2.506a3.309,3.309,0,0,0,.953-2.125,3.193,3.193,0,0,0,2.125-.953L35.208,27.1a3.272,3.272,0,0,0,0-4.631Zm-5.2,10.6-2.506,2.506a1.085,1.085,0,0,1-1.553,0L22.079,31.7a1.076,1.076,0,0,1-.327-.763.989.989,0,0,1,.327-.763l2.506-2.506a1.136,1.136,0,0,1,1.553,0,1.511,1.511,0,0,0,.218.163l-1.743,1.771a1.088,1.088,0,1,0,1.525,1.553l1.771-1.771a1.511,1.511,0,0,0,.163.218A1.053,1.053,0,0,1,28.071,31.131Zm5.584-5.584-2.506,2.506a1.085,1.085,0,0,1-1.553,0,1.511,1.511,0,0,0-.218-.163l2.016-2.016a1.1,1.1,0,0,0-1.553-1.553l-2.016,2.016a1.511,1.511,0,0,0-.163-.218,1.085,1.085,0,0,1,0-1.553l2.506-2.506a1.085,1.085,0,0,1,1.553,0l1.934,1.934A1.085,1.085,0,0,1,33.655,25.547Z"/>
  </g>
</svg>
