<svg xmlns="http://www.w3.org/2000/svg" viewBox="0 0 13.152 18.084">
  <defs>
    <style>
      .cls-1 {
        opacity: 0.5;
      }

      .cls-2 {
        fill-rule: evenodd;
      }
    </style>
  </defs>
  <g id="linklist-doc" class="cls-1" transform="translate(-18 -958.36)">
    <path id="Path_493" data-name="Path 493" class="cls-2" d="M18.411,976.444a.427.427,0,0,1-.411-.411V963.664a.45.45,0,0,1,.154-.347l4.893-4.823a.458.458,0,0,1,.36-.135h7.334a.427.427,0,0,1,.411.411v17.262a.427.427,0,0,1-.411.411H18.411Zm2.479-3.076h7.366a.411.411,0,1,0,0-.822H20.89a.411.411,0,1,0,0,.822Zm-.058-2.119h5.08a.411.411,0,1,0,0-.822H20.89a.412.412,0,1,0-.058.822Zm-1.419-8.021h3.532v-3.481Z"/>
  </g>
</svg>
