<svg xmlns="http://www.w3.org/2000/svg" viewBox="0 0 16.136 14.119">
  <defs>
    <style>
      .cls-1 {
        opacity: 0.5;
      }
    </style>
  </defs>
  <path id="linklist-article" class="cls-1" d="M8.068,3.008A1.008,1.008,0,0,1,9.076,2h6.051a1.008,1.008,0,0,1,0,2.017H9.076A1.008,1.008,0,0,1,8.068,3.008Zm7.059,3.025H9.076a1.008,1.008,0,0,0,0,2.017h6.051a1.008,1.008,0,0,0,0-2.017ZM1.008,8.051H5.042A1.009,1.009,0,0,0,6.051,7.042V3.008A1.009,1.009,0,0,0,5.042,2H1.008A1.009,1.009,0,0,0,0,3.008V7.042A1.009,1.009,0,0,0,1.008,8.051ZM7.059,14.1H1.008a1.008,1.008,0,0,0,0,2.017H7.059a1.008,1.008,0,0,0,0-2.017Zm0-4.034H1.008a1.008,1.008,0,0,0,0,2.017H7.059a1.008,1.008,0,0,0,0-2.017Zm8.068,0H11.093a1.009,1.009,0,0,0-1.008,1.008V15.11a1.008,1.008,0,0,0,1.008,1.008h4.034a1.008,1.008,0,0,0,1.008-1.008V11.076A1.009,1.009,0,0,0,15.127,10.068Z" transform="translate(0 -2)"/>
</svg>
